<svg xmlns="http://www.w3.org/2000/svg" xmlns:xlink="http://www.w3.org/1999/xlink" width="500" zoomAndPan="magnify" viewBox="0 0 375 374.999991" height="500" preserveAspectRatio="xMidYMid meet" version="1.0"><path fill="#a6a6a6" d="M 361.480469 210.152344 C 353.042969 205.105469 342.523438 206.195312 335.300781 212.867188 C 315.269531 231.371094 289.210938 241.558594 261.929688 241.558594 C 202.277344 241.558594 153.746094 193.03125 153.746094 133.378906 C 153.746094 95.335938 174.109375 59.644531 206.890625 40.230469 C 215.34375 35.222656 219.398438 25.460938 216.984375 15.9375 C 214.570312 6.417969 206.355469 -0.230469 196.546875 -0.609375 C 194.117188 -0.703125 191.648438 -0.75 189.214844 -0.75 C 85.445312 -0.75 1.019531 83.675781 1.019531 187.445312 C 1.019531 291.214844 85.445312 375.640625 189.214844 375.640625 C 275.140625 375.640625 350.085938 317.589844 371.476562 234.472656 C 373.921875 224.964844 369.902344 215.191406 361.480469 210.152344 Z M 189.214844 345.695312 C 101.957031 345.695312 30.964844 274.703125 30.964844 187.445312 C 30.964844 106.710938 91.730469 39.902344 169.929688 30.363281 C 159.121094 40.027344 149.832031 51.363281 142.503906 63.945312 C 130.269531 84.941406 123.800781 108.953125 123.800781 133.378906 C 123.800781 209.542969 185.765625 271.503906 261.929688 271.503906 C 287.683594 271.503906 312.582031 264.394531 334.148438 251.140625 C 309.28125 307.871094 252.828125 345.695312 189.214844 345.695312 Z M 189.214844 345.695312 " fill-opacity="1" fill-rule="nonzero"/></svg>