<svg xmlns="http://www.w3.org/2000/svg" xmlns:xlink="http://www.w3.org/1999/xlink" width="500" zoomAndPan="magnify" viewBox="0 0 375 374.999991" height="500" preserveAspectRatio="xMidYMid meet" version="1.0"><path fill="#a6a6a6" d="M 187.460938 239.96875 C 158.519531 239.96875 134.980469 216.429688 134.980469 187.492188 C 134.980469 158.558594 158.519531 135.019531 187.460938 135.019531 C 216.394531 135.019531 239.933594 158.558594 239.933594 187.492188 C 239.933594 216.429688 216.394531 239.96875 187.460938 239.96875 Z M 187.460938 107.390625 C 143.289062 107.390625 107.355469 143.324219 107.355469 187.492188 C 107.355469 231.660156 143.289062 267.597656 187.460938 267.597656 C 231.625 267.597656 267.558594 231.660156 267.558594 187.492188 C 267.558594 143.324219 231.625 107.390625 187.460938 107.390625 " fill-opacity="1" fill-rule="nonzero"/><path fill="#a6a6a6" d="M 187.460938 90.21875 C 195.089844 90.21875 201.269531 84.035156 201.269531 76.40625 L 201.269531 13.839844 C 201.269531 6.210938 195.089844 0.0273438 187.460938 0.0273438 C 179.828125 0.0273438 173.644531 6.210938 173.644531 13.839844 L 173.644531 76.40625 C 173.644531 84.035156 179.828125 90.21875 187.460938 90.21875 " fill-opacity="1" fill-rule="nonzero"/><path fill="#a6a6a6" d="M 266.007812 122.757812 C 269.542969 122.757812 273.078125 121.410156 275.773438 118.710938 L 320.019531 74.464844 C 325.414062 69.070312 325.414062 60.324219 320.019531 54.929688 C 314.628906 49.535156 305.882812 49.535156 300.484375 54.929688 L 256.242188 99.175781 C 250.847656 104.570312 250.847656 113.3125 256.242188 118.710938 C 258.9375 121.410156 262.472656 122.757812 266.007812 122.757812 " fill-opacity="1" fill-rule="nonzero"/><path fill="#a6a6a6" d="M 361.121094 173.679688 L 298.546875 173.679688 C 290.914062 173.679688 284.730469 179.863281 284.730469 187.492188 C 284.730469 195.121094 290.914062 201.308594 298.546875 201.308594 L 361.121094 201.308594 C 368.753906 201.308594 374.933594 195.121094 374.933594 187.492188 C 374.933594 179.863281 368.753906 173.679688 361.121094 173.679688 " fill-opacity="1" fill-rule="nonzero"/><path fill="#a6a6a6" d="M 275.773438 256.277344 C 270.378906 250.878906 261.632812 250.882812 256.242188 256.277344 C 250.847656 261.671875 250.847656 270.417969 256.242188 275.8125 L 300.484375 320.058594 C 303.183594 322.757812 306.71875 324.105469 310.253906 324.105469 C 313.789062 324.105469 317.324219 322.753906 320.019531 320.058594 C 325.414062 314.660156 325.414062 305.917969 320.019531 300.523438 L 275.773438 256.277344 " fill-opacity="1" fill-rule="nonzero"/><path fill="#a6a6a6" d="M 187.460938 284.765625 C 179.828125 284.765625 173.644531 290.953125 173.644531 298.582031 L 173.644531 361.160156 C 173.644531 368.789062 179.828125 374.972656 187.460938 374.972656 C 195.089844 374.972656 201.269531 368.789062 201.269531 361.160156 L 201.269531 298.582031 C 201.269531 290.953125 195.089844 284.765625 187.460938 284.765625 " fill-opacity="1" fill-rule="nonzero"/><path fill="#a6a6a6" d="M 99.140625 256.277344 L 54.894531 300.523438 C 49.5 305.917969 49.5 314.660156 54.894531 320.058594 C 57.59375 322.757812 61.128906 324.105469 64.660156 324.105469 C 68.195312 324.105469 71.730469 322.753906 74.425781 320.058594 L 118.671875 275.8125 C 124.066406 270.417969 124.066406 261.671875 118.671875 256.277344 C 113.28125 250.878906 104.535156 250.882812 99.140625 256.277344 " fill-opacity="1" fill-rule="nonzero"/><path fill="#a6a6a6" d="M 90.179688 187.492188 C 90.179688 179.863281 83.996094 173.679688 76.367188 173.679688 L 13.789062 173.679688 C 6.160156 173.679688 -0.0234375 179.863281 -0.0234375 187.492188 C -0.0234375 195.121094 6.160156 201.308594 13.789062 201.308594 L 76.367188 201.308594 C 83.996094 201.308594 90.179688 195.121094 90.179688 187.492188 " fill-opacity="1" fill-rule="nonzero"/><path fill="#a6a6a6" d="M 99.140625 118.710938 C 101.835938 121.410156 105.371094 122.757812 108.90625 122.757812 C 112.441406 122.757812 115.976562 121.410156 118.671875 118.710938 C 124.066406 113.3125 124.066406 104.570312 118.671875 99.175781 L 74.425781 54.929688 C 69.035156 49.535156 60.289062 49.535156 54.894531 54.929688 C 49.5 60.324219 49.5 69.070312 54.894531 74.464844 L 99.140625 118.710938 " fill-opacity="1" fill-rule="nonzero"/></svg>